# Blender v2.93.5 OBJ File: 'sword.blend'
# www.blender.org
o Cylinder_Cylinder.001
v -0.248788 0.813076 0.205316
v 0.033966 0.420485 -0.040652
v -0.010431 0.397828 -0.045336
v -0.197481 0.813076 0.254105
v 0.040875 0.397828 0.003454
v -0.204391 0.835733 0.210000
v -0.241878 0.790419 0.249421
v -0.003522 0.375171 -0.001230
v 0.027505 0.331739 -0.085228
v 0.012322 0.282379 -0.017891
v 0.034414 0.309083 -0.041123
v 0.040142 0.309724 -0.098517
v 0.158841 0.092315 -0.171968
v 0.047051 0.287067 -0.054411
v 0.106630 0.359085 -0.117064
v 0.084539 0.332381 -0.093833
v 0.091448 0.309724 -0.049727
v 0.024959 0.260363 -0.031180
v 0.109046 0.331739 -0.007687
v 0.078811 0.331739 -0.036439
v 0.151932 0.114972 -0.216073
v 0.203238 0.114972 -0.167284
v 0.196328 0.137629 -0.211389
v 0.013891 0.355455 -0.070913
v 0.020801 0.332799 -0.026807
v 0.065197 0.355455 -0.022123
v 0.086431 0.514911 -0.147193
v 0.137737 0.514911 -0.098404
v 0.058288 0.378112 -0.066229
v 0.071902 0.354396 -0.080544
v 0.130828 0.537568 -0.142509
v 0.162059 0.472538 -0.123981
v 0.155150 0.495195 -0.168086
v 0.110753 0.472538 -0.172770
v 0.093993 0.381100 -0.103775
v 0.121683 0.309724 -0.020976
v -0.002730 0.331739 -0.113980
v 0.009907 0.309724 -0.127269
vt 0.797987 0.325036
vt 0.823424 0.599624
vt 0.797987 0.599624
vt 0.797987 0.325036
vt 0.772550 0.599624
vt 0.772551 0.325036
vt 0.615666 0.668763
vt 0.590230 0.643327
vt 0.615666 0.643327
vt 0.706827 0.368738
vt 0.681390 0.643327
vt 0.681390 0.368738
vt 0.655953 0.643327
vt 0.655953 0.368738
vt 0.812977 0.640051
vt 0.772550 0.655041
vt 0.787540 0.640051
vt 0.884833 0.453819
vt 0.859397 0.582601
vt 0.859397 0.453819
vt 0.899823 0.597591
vt 0.914813 0.638018
vt 0.899823 0.623028
vt 0.874387 0.623028
vt 0.859397 0.582601
vt 0.874387 0.597591
vt 0.772551 0.599624
vt 0.787540 0.614614
vt 0.641103 0.643327
vt 0.615666 0.668763
vt 0.615666 0.643327
vt 0.884833 0.453819
vt 0.910270 0.325036
vt 0.910270 0.453819
vt 0.859397 0.325036
vt 0.884833 0.453819
vt 0.859397 0.453819
vt 0.884833 0.582601
vt 0.655953 0.340719
vt 0.681390 0.340719
vt 0.706827 0.340719
vt 0.841410 0.528917
vt 0.859397 0.453956
vt 0.859397 0.546904
vt 0.772550 0.368738
vt 0.925953 0.350473
vt 0.910270 0.325036
vt 0.925953 0.325036
vt 0.925953 0.375909
vt 0.910270 0.350473
vt 0.925953 0.350473
vt 0.706827 0.325036
vt 0.681390 0.325036
vt 0.655953 0.325036
vt 0.884833 0.638018
vt 0.910270 0.666037
vt 0.884833 0.666037
vt 0.884833 0.666037
vt 0.859397 0.638018
vt 0.884833 0.638018
vt 0.841410 0.417983
vt 0.823424 0.343023
vt 0.841410 0.325036
vt 0.823424 0.453956
vt 0.841410 0.435970
vt 0.859397 0.343023
vt 0.859397 0.435970
vt 0.590230 0.368738
vt 0.590230 0.340719
vt 0.859397 0.602320
vt 0.844839 0.657737
vt 0.844839 0.602320
vt 0.844839 0.546904
vt 0.830281 0.602320
vt 0.830281 0.546904
vt 0.830281 0.602320
vt 0.830281 0.657737
vt 0.859397 0.546904
vt 0.844839 0.602320
vt 0.844839 0.546904
vt 0.914813 0.582601
vt 0.827967 0.599624
vt 0.812977 0.614614
vt 0.859397 0.638018
vt 0.827967 0.655041
vt 0.823424 0.325036
vt 0.797987 0.599624
vt 0.590230 0.668763
vt 0.706827 0.643327
vt 0.641103 0.668763
vt 0.884833 0.325036
vt 0.884833 0.325036
vt 0.910270 0.582601
vt 0.772550 0.340719
vt 0.910270 0.350473
vt 0.910270 0.375909
vt 0.910270 0.638018
vt 0.859397 0.666037
vt 0.823424 0.435970
vt 0.823424 0.546904
vt 0.859397 0.657737
vt 0.844839 0.602320
vt 0.844839 0.602320
vt 0.859397 0.602320
vn -0.1380 0.4526 -0.8810
vn 0.8868 0.4526 0.0936
vn 0.8868 0.4526 0.0935
vn -0.4410 0.7684 0.4638
vn 0.1380 -0.4526 0.8810
vn -0.8868 -0.4526 -0.0936
vn -0.8868 -0.4526 -0.0935
vn 0.4410 -0.7684 -0.4638
vn 0.4411 -0.7683 -0.4638
vn 0.4410 -0.7683 -0.4638
vn 0.7247 -0.0000 0.6891
vn 0.4411 -0.7684 -0.4638
vn -0.7247 0.0000 -0.6891
vn -0.4411 0.7683 0.4638
vn -0.4411 0.7684 0.4638
s 1
f 1/1/1 2/2/1 3/3/1
f 2/4/2 4/5/3 5/6/2
f 6/7/4 7/8/4 4/9/4
f 5/10/5 7/11/5 8/12/5
f 8/12/6 1/13/7 3/14/6
f 9/15/4 10/16/4 11/17/4
f 12/18/6 13/19/6 14/20/6
f 12/21/8 15/22/9 16/23/10
f 17/24/8 18/25/8 14/26/8
f 11/17/4 19/27/4 20/28/4
f 21/29/8 22/30/8 13/31/8
f 17/32/2 23/33/2 16/34/2
f 17/35/5 13/36/5 22/37/5
f 16/34/1 21/38/1 12/18/1
f 8/12/6 24/39/6 25/40/7
f 5/10/5 25/40/5 26/41/5
f 2/42/4 27/43/4 3/44/4
f 26/41/11 28/45/11 5/10/11
f 9/46/1 29/47/1 30/48/1
f 30/49/2 26/50/2 20/51/2
f 20/52/5 25/40/5 11/53/5
f 11/53/7 24/39/6 9/54/6
f 31/55/2 32/56/2 33/57/2
f 27/58/1 33/59/1 34/60/1
f 29/61/8 34/62/8 33/63/8
f 2/42/4 28/64/4 31/65/4
f 29/61/8 32/66/8 26/67/12
f 24/39/13 27/68/13 34/69/13
f 35/70/2 36/71/2 15/72/2
f 37/73/1 15/74/1 38/75/1
f 10/76/5 36/71/5 19/77/5
f 10/78/6 38/79/6 18/80/6
f 14/26/8 38/81/8 12/21/8
f 20/28/4 35/82/14 30/83/14
f 16/23/10 36/84/8 17/24/8
f 9/15/4 35/82/14 37/85/4
f 1/1/1 6/86/1 2/2/1
f 2/4/2 6/87/3 4/5/3
f 6/7/4 1/88/4 7/8/4
f 5/10/5 4/89/5 7/11/5
f 8/12/6 7/11/7 1/13/7
f 9/15/4 37/85/4 10/16/4
f 12/18/6 21/38/6 13/19/6
f 12/21/8 38/81/8 15/22/9
f 17/24/8 36/84/8 18/25/8
f 11/17/4 10/16/4 19/27/4
f 21/29/8 23/90/9 22/30/8
f 17/32/2 22/91/3 23/33/2
f 17/35/5 14/92/5 13/36/5
f 16/34/1 23/93/1 21/38/1
f 8/12/6 3/14/6 24/39/6
f 5/10/5 8/12/5 25/40/5
f 2/42/4 31/65/4 27/43/4
f 26/41/11 32/94/11 28/45/11
f 9/46/1 24/95/1 29/47/1
f 30/49/2 29/96/2 26/50/2
f 20/52/5 26/41/5 25/40/5
f 11/53/7 25/40/7 24/39/6
f 31/55/2 28/97/2 32/56/2
f 27/58/1 31/98/1 33/59/1
f 29/61/8 24/99/8 34/62/8
f 2/42/4 5/100/15 28/64/4
f 29/61/8 33/63/8 32/66/8
f 24/39/13 3/14/13 27/68/13
f 35/70/2 19/101/2 36/71/2
f 37/73/1 35/102/1 15/74/1
f 10/76/5 18/103/5 36/71/5
f 10/78/6 37/104/6 38/79/6
f 14/26/8 18/25/8 38/81/8
f 20/28/4 19/27/4 35/82/14
f 16/23/10 15/22/9 36/84/8
f 9/15/4 30/83/14 35/82/14
