# Blender v2.93.5 OBJ File: 'hatchet.blend'
# www.blender.org
o Cylinder.003
v 0.148844 0.271476 -0.181333
v -0.064654 0.704461 0.064663
v 0.179674 0.287990 -0.178641
v -0.062093 0.687947 0.095503
v 0.182235 0.271476 -0.147801
v -0.115484 0.791103 0.115279
v -0.087507 0.731267 0.120812
v -0.095484 0.687947 0.061972
v -0.120899 0.731267 0.087280
v -0.146313 0.774588 0.112588
v -0.092922 0.671432 0.092812
v 0.151406 0.254961 -0.150492
v -0.143752 0.758074 0.143429
v -0.200567 0.723948 0.200006
v -0.189663 0.729131 0.214254
v -0.127193 0.599230 0.126939
v -0.136534 0.595774 0.111135
v -0.112922 0.774588 0.146120
v -0.150546 0.662453 0.175300
v -0.240483 0.572035 0.239755
v -0.214769 0.729131 0.189042
v -0.175652 0.662453 0.150089
v -0.111428 0.595774 0.136346
v -0.280272 0.689059 0.279377
v -0.169136 0.497832 0.168707
vt 0.879129 0.557046
vt 0.907847 0.115108
vt 0.907847 0.557046
vt 0.792974 0.557046
vt 0.821692 0.115108
vt 0.821692 0.557046
vt 0.665732 0.501391
vt 0.628993 0.251686
vt 0.547475 0.422699
vt 0.792974 0.286013
vt 0.792974 0.240043
vt 0.284466 0.850123
vt 0.393600 0.625967
vt 0.393600 0.586539
vt 0.628993 0.205716
vt 0.821692 0.430551
vt 0.850410 0.872489
vt 0.821692 0.872489
vt 0.879129 0.557046
vt 0.850410 0.115108
vt 0.879129 0.115108
vt 0.267835 0.880924
vt 0.270483 0.820455
vt 0.283587 0.820917
vt 0.158525 0.863609
vt 0.161002 0.807448
vt 0.174112 0.807589
vt 0.252956 0.675381
vt 0.194237 0.633198
vt 0.252956 0.635953
vt 0.252956 0.632042
vt 0.334881 0.568035
vt 0.334881 0.628722
vt 0.252956 0.899035
vt 0.259895 0.821059
vt 0.143830 0.883153
vt 0.150527 0.809895
vt 0.282399 0.750894
vt 0.166376 0.750548
vt 0.212271 0.743108
vt 0.206736 0.815807
vt 0.203925 0.748068
vt 0.112312 0.629878
vt 0.194237 0.572512
vt 0.393600 0.665395
vt 0.334881 0.689408
vt 0.194237 0.693885
vt 0.268630 0.716305
vt 0.252956 0.596525
vt 0.284466 0.898847
vt 0.175198 0.880087
vt 0.879129 0.115108
vt 0.792974 0.115108
vt 0.850410 0.430551
vt 0.850410 0.557046
vt 0.269222 0.542894
vt 0.127986 0.545615
vt 0.128578 0.719026
vn -0.1527 0.4302 -0.8897
vn 0.8891 0.4302 0.1565
vn -0.1528 0.4302 -0.8897
vn -0.8891 -0.4302 -0.1565
vn 0.1528 -0.4302 0.8897
vn -0.4779 0.8770 0.0486
vn -0.4790 0.8765 0.0477
vn -0.4759 0.8781 0.0503
vn 0.7751 -0.5301 -0.3440
vn 0.7757 -0.5301 -0.3425
vn 0.7739 -0.5300 -0.3467
vn 0.6749 -0.0346 0.7371
vn 0.6749 -0.0347 0.7371
vn -0.7681 -0.0794 -0.6354
vn -0.0531 0.8785 0.4748
vn -0.0523 0.8780 0.4757
vn -0.0506 0.8770 0.4777
vn 0.3513 -0.5300 -0.7718
vn 0.3500 -0.5300 -0.7724
vn 0.3473 -0.5301 -0.7736
vn -0.7342 -0.0346 -0.6780
vn -0.4133 0.9105 -0.0149
vn 0.0131 0.9105 0.4134
vn 0.7970 -0.4804 -0.3660
vn 0.3693 -0.4804 -0.7955
vn 0.6322 -0.0794 0.7707
vn -0.7609 -0.1214 -0.6374
vn -0.4519 0.7703 0.4500
vn -0.4519 0.7702 0.4500
vn -0.4750 0.8785 0.0511
vn -0.0497 0.8765 0.4788
vn 0.7733 -0.5300 -0.3481
vn 0.3458 -0.5301 -0.7742
vn -0.7939 -0.0652 -0.6046
vn 0.6342 -0.1214 0.7636
vn 0.6012 -0.0652 0.7964
s 1
f 1/1/1 2/2/1 3/3/1
f 3/4/2 4/5/2 5/6/2
f 6/7/2 7/8/2 2/9/2
f 8/10/3 9/11/3 2/9/3
f 6/12/3 9/13/3 10/14/3
f 4/15/2 2/9/2 7/8/2
f 1/16/4 11/17/4 8/18/4
f 12/19/5 4/20/5 11/21/5
f 13/22/6 14/23/7 15/24/8
f 11/25/9 16/26/10 17/27/11
f 18/28/12 19/29/13 7/30/13
f 20/31/14 21/32/14 22/33/14
f 10/34/15 21/35/16 13/22/17
f 4/36/18 23/37/19 11/25/20
f 10/14/21 22/33/21 21/32/21
f 14/23/22 24/38/22 15/24/22
f 21/35/23 24/38/23 14/23/23
f 16/26/24 25/39/24 17/27/24
f 23/40/25 25/41/25 16/42/25
f 20/43/26 23/44/26 19/29/26
f 22/33/21 8/45/21 17/46/21
f 15/47/26 20/43/26 19/29/26
f 20/31/27 17/46/27 25/48/27
f 4/49/13 19/29/13 23/44/12
f 10/34/28 18/50/28 6/12/29
f 15/24/8 18/50/30 13/22/6
f 21/35/16 14/23/31 13/22/17
f 17/27/11 8/51/32 11/25/9
f 23/37/19 16/26/33 11/25/20
f 1/1/3 8/52/3 2/2/3
f 3/4/2 2/53/2 4/5/2
f 6/12/2 18/28/2 7/30/2
f 6/7/3 2/9/3 9/11/3
f 1/16/4 12/54/4 11/17/4
f 12/19/5 5/55/5 4/20/5
f 18/28/12 15/47/13 19/29/13
f 20/31/34 24/56/34 21/32/34
f 10/14/21 9/13/21 22/33/21
f 20/43/35 25/57/35 23/44/35
f 22/33/21 9/13/21 8/45/21
f 15/47/36 24/58/36 20/43/36
f 20/31/14 22/33/14 17/46/14
f 4/49/13 7/30/13 19/29/13
f 10/34/28 13/22/28 18/50/28
