# Blender v2.93.5 OBJ File: 'battleaxe.blend'
# www.blender.org
o Cylinder.002
v 0.057079 0.908625 0.003776
v 0.024531 0.765681 -0.141821
v -0.049818 0.857365 -0.072631
v 0.147620 0.796973 -0.080483
v 0.055361 0.635499 -0.170511
v 0.185164 0.638438 -0.115422
v 0.034410 0.501701 -0.151014
v 0.077916 0.351818 -0.015616
v 0.096901 0.448340 -0.088559
v 0.159650 0.475500 -0.091679
v -0.032707 0.400138 -0.088554
v -0.038139 0.300532 0.092387
v -0.128006 0.358024 0.000133
v -0.225953 0.386643 0.091283
v -0.157417 0.335384 0.203389
v -0.300302 0.478327 0.160473
v -0.247958 0.447036 0.287648
v -0.331131 0.608509 0.189164
v -0.259989 0.768508 0.298844
v -0.310181 0.742307 0.169667
v -0.243064 0.843870 0.107207
v 0.067575 0.373631 -0.005992
v -0.178254 0.892191 0.222780
v -0.147764 0.885984 0.018520
v -0.243049 0.756680 0.283079
v -0.214087 0.825958 0.121317
v -0.167913 0.870377 0.213157
v -0.061228 0.917523 0.113874
v 0.048420 0.885485 0.011834
v 0.131652 0.782847 -0.065623
v 0.166165 0.637111 -0.097741
v 0.142711 0.487328 -0.075915
v -0.062200 0.943477 0.114778
v -0.285502 0.605570 0.322587
v -0.266503 0.606897 0.304906
v -0.231990 0.461162 0.272787
v -0.148758 0.358524 0.195331
v -0.039110 0.326486 0.093291
v -0.198358 0.405645 0.106679
v 0.060244 0.634410 -0.133980
v -0.266704 0.489927 0.170283
v -0.020713 0.418050 -0.058639
v -0.126481 0.864672 0.039790
v -0.036442 0.838363 -0.044001
v 0.031904 0.754082 -0.107606
v -0.295044 0.609599 0.196657
v -0.108319 0.379336 0.022888
v -0.275785 0.732595 0.178734
v 0.040985 0.511414 -0.116057
v 0.066540 0.402398 -0.060305
v 0.367673 0.217396 -0.215570
v 0.050380 0.458073 -0.110600
v 0.025448 0.420347 -0.087399
v 0.300588 0.117643 -0.249103
v 0.341128 0.178989 -0.286830
v 0.318303 0.142689 -0.169626
vt 0.322900 0.816237
vt 0.283193 0.858216
vt 0.283193 0.819885
vt 0.322900 0.862915
vt 0.276941 0.888378
vt 0.174976 0.735118
vt 0.129760 0.740081
vt 0.163415 0.720711
vt 0.086666 0.758707
vt 0.119118 0.752854
vt 0.133991 0.758707
vt 0.090898 0.740081
vt 0.045681 0.735118
vt 0.057243 0.720711
vt 0.269328 0.772119
vt 0.237234 0.813550
vt 0.230982 0.783388
vt 0.276941 0.808851
vt 0.237234 0.851880
vt 0.276941 0.855529
vt 0.230982 0.888108
vt 0.230982 0.889853
vt 0.182846 0.860430
vt 0.222656 0.856198
vt 0.222656 0.817336
vt 0.182846 0.660146
vt 0.189974 0.705561
vt 0.182846 0.707471
vt 0.182846 0.813104
vt 0.230982 0.783681
vt 0.276941 0.783658
vt 0.090898 0.595498
vt 0.163415 0.614868
vt 0.352312 0.705561
vt 0.338282 0.665946
vt 0.352312 0.662056
vt 0.294802 0.595498
vt 0.330563 0.624380
vt 0.292892 0.602628
vt 0.249394 0.602628
vt 0.247484 0.595498
vt 0.211723 0.624380
vt 0.189974 0.662056
vt 0.359440 0.660146
vt 0.335781 0.619161
vt 0.206505 0.619161
vt 0.359440 0.707471
vt 0.335781 0.748456
vt 0.294802 0.772119
vt 0.330563 0.743237
vt 0.247484 0.772119
vt 0.292892 0.764989
vt 0.206505 0.748456
vt 0.249394 0.764989
vt 0.211723 0.743237
vt 0.253770 0.750471
vt 0.222836 0.635008
vt 0.329899 0.812675
vt 0.351767 0.847995
vt 0.329899 0.855585
vt 0.378545 0.676679
vt 0.359440 0.637064
vt 0.378545 0.633174
vt 0.320422 0.635008
vt 0.373635 0.812675
vt 0.351767 0.847995
vt 0.351767 0.812759
vt 0.346020 0.875723
vt 0.322900 0.889351
vt 0.387866 0.595498
vt 0.367094 0.606126
vt 0.380634 0.889351
vt 0.373635 0.855585
vt 0.357514 0.779457
vt 0.380634 0.772119
vt 0.320422 0.732609
vt 0.338282 0.701671
vt 0.322900 0.772119
vt 0.351767 0.812759
vt 0.387866 0.714355
vt 0.359440 0.672789
vt 0.403716 0.772119
vt 0.380634 0.876540
vt 0.386137 0.772119
vt 0.117546 0.745935
vt 0.101539 0.752854
vt 0.103111 0.745935
vt 0.406663 0.889640
vt 0.383190 0.889640
vt 0.418615 0.887622
vt 0.430938 0.772119
vt 0.430938 0.895040
vt 0.397261 0.602916
vt 0.409585 0.718419
vt 0.387866 0.707894
vt 0.122065 0.870397
vt 0.098592 0.870397
vt 0.315287 0.899646
vt 0.269328 0.899646
vt 0.192985 0.901415
vt 0.192985 0.772119
vt 0.315287 0.772119
vt 0.182846 0.648419
vt 0.182846 0.687160
vt 0.037812 0.687160
vt 0.037812 0.648419
vt 0.057243 0.614868
vt 0.129760 0.595498
vt 0.253770 0.617146
vt 0.289489 0.617146
vt 0.289489 0.750471
vt 0.222836 0.732609
vt 0.204977 0.701671
vt 0.204977 0.665946
vt 0.357514 0.875723
vt 0.346020 0.779457
vt 0.367094 0.703727
vt 0.409219 0.876540
vt 0.409219 0.782644
vt 0.409585 0.595498
vn 0.1802 0.6815 -0.7093
vn 0.3693 0.2826 -0.8853
vn 0.3871 -0.1920 -0.9018
vn 0.2288 -0.6152 -0.7545
vn -0.0632 -0.8735 -0.4827
vn -0.4107 -0.8977 -0.1594
vn -0.7204 -0.6815 0.1289
vn -0.7204 -0.6815 0.1288
vn -0.9095 -0.2826 0.3048
vn -0.9273 0.1920 0.3214
vn -0.7690 0.6152 0.1740
vn 0.6813 -0.0000 0.7320
vn -0.4770 0.8735 -0.0977
vn -0.1295 0.8977 -0.4211
vn -0.6813 0.0000 -0.7320
vn 0.7958 -0.5950 -0.1123
vn 0.6812 0.0000 0.7321
vn 0.6813 -0.0000 0.7321
vn 0.7489 0.6591 -0.0687
vn -0.1692 0.5950 0.7857
vn 0.5134 -0.8448 0.1505
vn -0.1222 -0.6591 0.7420
vn 0.9318 0.2733 -0.2389
vn 0.1133 0.8448 0.5229
vn 0.1774 -0.8683 0.4632
vn -0.3051 -0.2733 0.9122
vn 0.9490 -0.1857 -0.2548
vn 0.9490 -0.1857 -0.2549
vn 0.4493 0.8683 0.2102
vn -0.3223 0.1857 0.9282
vn 0.5292 0.1624 0.8328
vn 0.2287 -0.6152 -0.7545
vn 0.8313 -0.5557 -0.0102
vn 0.4044 0.7510 -0.5220
vn -0.5899 -0.7231 0.3594
vn -0.5874 -0.1053 -0.8024
vn -0.6812 -0.0000 -0.7321
vn 0.3815 0.7469 -0.5447
vn -0.5709 -0.7249 0.3856
s 1
f 1/1/1 2/2/1 3/3/1
f 4/4/2 5/5/2 2/2/2
f 6/6/3 7/7/3 5/8/3
f 8/9/4 9/10/4 10/11/4
f 11/12/5 12/13/5 13/14/5
f 12/15/6 14/16/6 13/17/6
f 15/18/7 16/19/7 14/16/8
f 17/20/9 18/21/9 16/19/9
f 18/22/10 19/23/10 20/24/10
f 19/23/11 21/25/11 20/24/11
f 10/26/12 22/27/12 8/28/12
f 23/29/13 24/30/13 21/25/13
f 24/31/14 1/1/14 3/3/14
f 20/32/15 24/33/15 7/7/15
f 25/34/16 26/35/16 27/36/16
f 1/37/12 28/38/12 29/39/12
f 1/37/12 30/40/12 4/41/12
f 10/26/12 31/42/12 32/43/12
f 23/44/17 28/38/12 33/45/12
f 4/41/12 31/42/12 6/46/12
f 19/47/12 27/36/17 23/44/17
f 34/48/12 25/34/12 19/47/12
f 17/49/12 35/50/12 34/48/12
f 15/51/12 36/52/12 17/49/12
f 12/53/12 37/54/18 15/51/12
f 12/53/12 22/27/12 38/55/12
f 26/35/12 39/56/12 40/57/12
f 37/58/19 41/59/19 36/60/19
f 32/61/20 42/62/20 22/63/20
f 27/36/21 43/64/21 28/38/21
f 30/65/22 44/66/22 45/67/22
f 36/60/23 46/68/23 35/69/23
f 38/70/24 42/62/24 47/71/24
f 28/72/25 44/66/25 29/73/25
f 30/65/26 40/74/26 31/75/26
f 25/34/27 46/76/27 48/77/28
f 38/78/29 39/79/29 37/58/29
f 31/80/30 49/81/30 32/61/30
f 50/82/31 51/83/31 9/84/31
f 7/7/4 9/10/4 52/85/4
f 11/12/4 50/86/32 8/9/4
f 7/7/4 53/87/4 11/12/4
f 51/83/33 54/88/33 55/89/33
f 9/90/34 55/91/34 52/92/34
f 50/93/35 54/94/35 56/95/35
f 53/87/36 55/96/36 54/97/36
f 1/1/1 4/4/1 2/2/1
f 4/4/2 6/98/2 5/5/2
f 6/6/3 10/11/3 7/7/3
f 8/9/4 50/86/32 9/10/4
f 11/12/5 8/9/5 12/13/5
f 12/15/6 15/18/6 14/16/6
f 15/18/7 17/20/7 16/19/7
f 17/20/9 34/99/9 18/21/9
f 18/22/10 34/100/10 19/23/10
f 19/23/11 23/29/11 21/25/11
f 10/26/12 32/43/12 22/27/12
f 23/29/13 33/101/13 24/30/13
f 24/31/14 33/102/14 1/1/14
f 24/33/15 3/103/15 7/7/15
f 3/103/15 2/104/15 7/7/15
f 2/104/15 5/8/37 7/7/15
f 7/7/15 11/12/15 13/14/15
f 13/14/15 14/105/37 16/106/15
f 16/106/15 18/107/15 20/32/15
f 20/32/15 21/108/15 24/33/15
f 7/7/15 13/14/15 16/106/15
f 16/106/15 20/32/15 7/7/15
f 25/34/16 48/77/16 26/35/16
f 1/37/12 33/45/12 28/38/12
f 1/37/12 29/39/12 30/40/12
f 10/26/12 6/46/12 31/42/12
f 23/44/17 27/36/17 28/38/12
f 4/41/12 30/40/12 31/42/12
f 19/47/12 25/34/12 27/36/17
f 34/48/12 35/50/12 25/34/12
f 17/49/12 36/52/12 35/50/12
f 15/51/12 37/54/18 36/52/12
f 12/53/12 38/55/12 37/54/18
f 12/53/12 8/28/12 22/27/12
f 40/57/12 45/109/12 44/110/12
f 44/110/12 43/64/12 26/35/12
f 26/35/12 48/77/12 39/56/12
f 48/77/12 46/76/12 39/56/12
f 46/76/12 41/111/12 39/56/12
f 39/56/12 47/112/12 42/113/18
f 42/113/18 49/114/12 39/56/12
f 49/114/12 40/57/12 39/56/12
f 40/57/12 44/110/12 26/35/12
f 37/58/19 39/79/19 41/59/19
f 32/61/20 49/81/20 42/62/20
f 27/36/21 26/35/21 43/64/21
f 30/65/22 29/73/22 44/66/22
f 36/60/23 41/59/23 46/68/23
f 38/70/24 22/63/24 42/62/24
f 28/72/25 43/115/25 44/66/25
f 30/65/26 45/67/26 40/74/26
f 25/34/27 35/50/27 46/76/27
f 38/78/29 47/116/29 39/79/29
f 31/80/30 40/117/30 49/81/30
f 50/82/31 56/118/31 51/83/31
f 7/7/4 10/11/4 9/10/4
f 11/12/4 53/87/4 50/86/32
f 7/7/4 52/85/4 53/87/4
f 51/83/33 56/118/33 54/88/33
f 9/90/38 51/119/38 55/91/38
f 50/93/39 53/120/39 54/94/39
f 53/87/36 52/85/36 55/96/36
