# Blender v2.93.5 OBJ File: 'ration.blend'
# www.blender.org
o Bread
v 0.304069 0.000384 -0.152035
v 0.365516 0.000384 0.000000
v 0.304069 0.000384 0.152035
v -0.000000 0.000384 0.215010
v -0.304070 0.000384 0.152035
v -0.365516 0.000384 -0.000000
v -0.304070 0.000384 -0.152035
v -0.000000 0.000384 -0.215010
v 0.364883 0.064887 -0.182442
v 0.438620 0.064887 0.000000
v 0.364883 0.064887 0.182442
v -0.000000 0.064887 0.258011
v -0.364883 0.064887 0.182442
v -0.438620 0.064887 -0.000000
v -0.364883 0.064887 -0.182442
v -0.000000 0.064887 -0.258011
v 0.482482 0.129389 0.000000
v 0.401372 0.129389 -0.200686
v 0.401372 0.129389 0.200686
v -0.000000 0.129389 0.283813
v -0.401372 0.129389 0.200686
v -0.482481 0.129389 -0.000000
v -0.401372 0.129389 -0.200686
v -0.000000 0.129389 -0.283813
v 0.361235 0.215393 -0.180617
v 0.434233 0.215393 0.000000
v 0.361235 0.215393 0.180617
v -0.000000 0.215393 0.255431
v -0.361235 0.215393 0.180617
v -0.434233 0.215393 -0.000000
v -0.361235 0.215393 -0.180617
v -0.000000 0.215393 -0.255431
v 0.347387 0.301397 0.000000
v 0.288988 0.279896 -0.144494
v 0.288988 0.279896 0.144494
v -0.000000 0.279896 0.204345
v -0.288988 0.279896 0.144494
v -0.347387 0.301397 -0.000000
v -0.288988 0.279896 -0.144494
v -0.000000 0.279896 -0.204345
v -0.000000 0.301397 0.000000
v 0.000000 0.000384 0.000000
vt 0.640142 0.308310
vt 0.501665 0.366858
vt 0.501743 0.321464
vt 0.361161 0.307981
vt 0.340219 0.353551
vt 0.287876 0.211965
vt 0.333294 0.213146
vt 0.360970 0.117879
vt 0.316866 0.095570
vt 0.501515 0.058898
vt 0.501625 0.104321
vt 0.640074 0.117417
vt 0.660841 0.071730
vt 0.669392 0.212860
vt 0.685518 0.093527
vt 0.715430 0.212844
vt 0.685597 0.332170
vt 0.660924 0.353961
vt 0.501589 0.410168
vt 0.326369 0.395793
vt 0.315602 0.331047
vt 0.244667 0.211049
vt 0.276662 0.079460
vt 0.339986 0.072285
vt 0.501412 0.015560
vt 0.674523 0.029405
vt 0.758980 0.212831
vt 0.867827 0.712432
vt 0.740476 0.854999
vt 0.794983 0.712432
vt 0.740476 0.569866
vt 0.814601 0.532916
vt 0.501644 0.440619
vt 0.735173 0.564194
vt 0.497236 0.509557
vt 0.250945 0.559149
vt 0.214417 0.488401
vt 0.118864 0.712432
vt 0.246215 0.569866
vt 0.191708 0.712432
vt 0.246215 0.854999
vt 0.172090 0.891949
vt 0.215023 0.931234
vt 0.497235 0.911363
vt 0.498787 0.983741
vt 0.774361 0.922354
vt 0.689042 0.810281
vt 0.728589 0.712432
vt 0.689042 0.614584
vt 0.493345 0.574054
vt 0.297649 0.614584
vt 0.258102 0.712432
vt 0.297649 0.810281
vt 0.250945 0.861771
vt 0.493345 0.850811
vt 0.735173 0.856726
vt 0.493345 0.712432
vt 0.501909 0.212927
vt 0.674623 0.396256
vt 0.273493 0.346915
vt 0.326102 0.030020
vt 0.727552 0.076828
vt 0.727637 0.348842
vt 0.814601 0.891949
vt 0.774125 0.501808
vt 0.172090 0.532916
vn 0.2696 -0.8657 -0.4216
vn 0.7627 -0.6467 0.0000
vn 0.4243 -0.9055 0.0000
vn 0.2696 -0.8657 0.4216
vn 0.5030 -0.5828 0.6382
vn 0.0000 -0.4601 0.8878
vn 0.0000 -0.8561 0.5168
vn -0.2696 -0.8657 0.4216
vn -0.5030 -0.5828 0.6382
vn -0.7627 -0.6467 0.0000
vn -0.4243 -0.9055 0.0000
vn -0.2696 -0.8657 -0.4216
vn -0.5030 -0.5828 -0.6382
vn 0.0000 -0.8561 -0.5168
vn 0.0000 -0.4601 -0.8878
vn 0.5030 -0.5828 -0.6382
vn 0.9992 -0.0384 0.0000
vn 0.6778 -0.0358 0.7343
vn 0.0000 -0.0296 0.9995
vn -0.6778 -0.0358 0.7343
vn -0.9992 -0.0384 0.0000
vn -0.6778 -0.0358 -0.7343
vn 0.0000 -0.0296 -0.9995
vn 0.5098 0.5768 -0.6383
vn 0.7936 0.6084 0.0000
vn 0.5098 0.5768 0.6383
vn 0.0000 0.4652 0.8852
vn -0.5098 0.5768 0.6383
vn -0.7936 0.6084 0.0000
vn -0.5098 0.5768 -0.6383
vn 0.0000 0.4652 -0.8852
vn 0.6778 -0.0358 -0.7343
vn 0.2544 0.8571 -0.4478
vn 0.4397 0.8981 0.0000
vn 0.2544 0.8571 0.4478
vn 0.0000 0.8549 0.5188
vn -0.2544 0.8571 0.4478
vn -0.4397 0.8981 0.0000
vn -0.2544 0.8571 -0.4478
vn 0.0000 0.8549 -0.5188
vn 0.0000 1.0000 0.0000
vn 0.0000 -1.0000 0.0000
s 1
f 1/1/1 10/2/2 2/3/3
f 3/4/4 10/2/2 11/5/5
f 3/4/4 12/6/6 4/7/7
f 5/8/8 12/6/6 13/9/9
f 5/8/8 14/10/10 6/11/11
f 7/12/12 14/10/10 15/13/13
f 8/14/14 15/15/13 16/16/15
f 1/1/1 16/16/15 9/17/16
f 9/18/16 17/19/17 10/2/2
f 11/5/5 17/19/17 19/20/18
f 11/21/5 20/22/19 12/6/6
f 12/6/6 21/23/20 13/9/9
f 13/24/9 22/25/21 14/10/10
f 15/13/13 22/25/21 23/26/22
f 15/15/13 24/27/23 16/16/15
f 24/27/23 9/17/16 16/16/15
f 17/28/17 25/29/24 26/30/25
f 17/28/17 27/31/26 19/32/18
f 20/33/19 27/34/26 28/35/27
f 20/33/19 29/36/28 21/37/20
f 22/38/21 29/39/28 30/40/29
f 22/38/21 31/41/30 23/42/22
f 23/43/22 32/44/31 24/45/23
f 32/44/31 18/46/32 24/45/23
f 26/30/25 34/47/33 33/48/34
f 26/30/25 35/49/35 27/31/26
f 27/34/26 36/50/36 28/35/27
f 28/35/27 37/51/37 29/36/28
f 30/40/29 37/51/37 38/52/38
f 30/40/29 39/53/39 31/41/30
f 31/54/30 40/55/40 32/44/31
f 32/44/31 34/47/33 25/56/24
f 41/57/41 37/51/37 36/50/36
f 35/49/35 41/57/41 36/50/36
f 34/47/33 41/57/41 33/48/34
f 39/53/39 41/57/41 40/55/40
f 7/12/12 42/58/42 6/11/11
f 1/1/1 42/58/42 8/14/14
f 3/4/4 42/58/42 2/3/3
f 5/8/8 42/58/42 4/7/7
f 1/1/1 9/18/16 10/2/2
f 3/4/4 2/3/3 10/2/2
f 3/4/4 11/21/5 12/6/6
f 5/8/8 4/7/7 12/6/6
f 5/8/8 13/24/9 14/10/10
f 7/12/12 6/11/11 14/10/10
f 8/14/14 7/12/12 15/15/13
f 1/1/1 8/14/14 16/16/15
f 9/18/16 18/59/32 17/19/17
f 11/5/5 10/2/2 17/19/17
f 11/21/5 19/60/18 20/22/19
f 12/6/6 20/22/19 21/23/20
f 13/24/9 21/61/20 22/25/21
f 15/13/13 14/10/10 22/25/21
f 15/15/13 23/62/22 24/27/23
f 24/27/23 18/63/32 9/17/16
f 17/28/17 18/64/32 25/29/24
f 17/28/17 26/30/25 27/31/26
f 20/33/19 19/65/18 27/34/26
f 20/33/19 28/35/27 29/36/28
f 22/38/21 21/66/20 29/39/28
f 22/38/21 30/40/29 31/41/30
f 23/43/22 31/54/30 32/44/31
f 32/44/31 25/56/24 18/46/32
f 26/30/25 25/29/24 34/47/33
f 26/30/25 33/48/34 35/49/35
f 27/34/26 35/49/35 36/50/36
f 28/35/27 36/50/36 37/51/37
f 30/40/29 29/39/28 37/51/37
f 30/40/29 38/52/38 39/53/39
f 31/54/30 39/53/39 40/55/40
f 32/44/31 40/55/40 34/47/33
f 41/57/41 38/52/38 37/51/37
f 35/49/35 33/48/34 41/57/41
f 34/47/33 40/55/40 41/57/41
f 39/53/39 38/52/38 41/57/41
f 7/12/12 8/14/14 42/58/42
f 1/1/1 2/3/3 42/58/42
f 3/4/4 4/7/7 42/58/42
f 5/8/8 6/11/11 42/58/42
