# Blender v2.93.5 OBJ File: 'sword.blend'
# www.blender.org
o Cylinder
v 0.096635 0.269168 -0.141544
v 0.214907 0.106700 -0.230261
v 0.192504 0.096056 -0.232095
v 0.133794 0.269168 -0.106650
v 0.218144 0.096056 -0.208018
v 0.129103 0.284595 -0.138887
v 0.179612 0.394772 -0.192675
v 0.092997 0.294753 -0.118272
v -0.174623 0.868091 0.184557
v 0.118069 0.312718 -0.127137
v 0.110797 0.294753 -0.101557
v -0.185259 0.852664 0.202399
v 0.179529 0.435059 -0.192586
v -0.191762 0.852664 0.196293
v -0.243304 0.957930 0.257697
v 0.101327 0.253740 -0.109308
v 0.195741 0.085411 -0.209852
v 0.015151 0.212083 -0.017537
v -0.202398 0.837237 0.214136
v 0.085724 0.276788 -0.092692
v -0.011401 0.222967 0.010739
v 0.219446 0.082745 -0.220680
v 0.217630 0.088718 -0.233161
v 0.206876 0.076772 -0.221709
v 0.205059 0.082745 -0.234190
vt 0.871100 0.828388
vt 0.800433 0.207570
vt 0.859261 0.203932
vt 0.763039 0.207629
vt 0.712279 0.828165
vt 0.712279 0.203872
vt 0.336300 0.382307
vt 0.309704 0.395313
vt 0.350756 0.285105
vt 0.260545 0.935277
vt 0.274221 0.630258
vt 0.274221 0.935148
vt 0.350756 0.411869
vt 0.235796 0.572535
vt 0.248740 0.877643
vt 0.237625 0.877566
vt 0.163772 0.093369
vt 0.153025 0.231145
vt 0.122864 0.231145
vt 0.233896 0.364706
vt 0.223175 0.227232
vt 0.263166 0.386171
vt 0.362985 0.095014
vt 0.369706 0.071194
vt 0.369706 0.230930
vt 0.369769 0.400149
vt 0.362648 0.373991
vt 0.369769 0.235662
vt 0.262939 0.630189
vt 0.263620 0.572535
vt 0.237971 0.935216
vt 0.930708 0.833660
vt 0.661519 0.207629
vt 0.638715 0.833611
vt 0.286393 0.404419
vt 0.306798 0.285089
vt 0.306798 0.430237
vt 0.252339 0.629853
vt 0.248740 0.934678
vt 0.263166 0.422776
vt 0.226512 0.877777
vt 0.222856 0.573007
vt 0.163772 0.368922
vt 0.233896 0.093395
vt 0.193036 0.225486
vt 0.355526 0.208017
vt 0.362985 0.071194
vt 0.362985 0.235662
vt 0.362648 0.235662
vt 0.362648 0.400149
vt 0.355526 0.261820
vt 0.712279 0.157389
vt 0.740761 0.159497
vt 0.863878 0.146431
vt 0.807585 0.056932
vt 0.863878 0.031771
vt 0.821763 0.159430
vt 0.854773 0.157389
vt 0.785843 0.833660
vt 0.785843 0.833611
vt 0.248740 0.572852
vt 0.193036 0.071194
vt 0.900390 0.207570
vt 0.193036 0.391096
vt 0.263166 0.071194
vt 0.683797 0.159497
vt 0.807584 0.121270
vn -0.1195 0.4074 -0.9054
vn 0.9111 0.4074 0.0624
vn 0.3159 -0.5293 -0.7875
vn -0.4678 0.2321 -0.8528
vn 0.7661 -0.5293 -0.3647
vn 0.8074 0.1130 0.5790
vn 0.5407 0.3321 0.7729
vn -0.6518 0.0003 -0.7584
vn -0.8681 0.4871 0.0953
vn -0.0405 0.4871 0.8724
vn -0.6375 0.1307 -0.7592
vn 0.7978 0.1307 0.5886
vn -0.8898 -0.4483 -0.0850
vn 0.1408 -0.4483 0.8827
vn -0.0205 -0.9030 -0.4292
vn -0.8824 -0.2284 -0.4113
vn 0.4296 -0.9030 -0.0065
vn 0.4659 -0.2285 0.8548
vn 0.4893 0.2750 0.8276
vn -0.8567 0.2751 -0.4363
vn -0.6137 0.7698 -0.1757
vn 0.2139 0.7698 0.6014
vn -0.8253 -0.0779 -0.5593
vn 0.6101 -0.0778 0.7885
vn 0.2523 -0.6539 0.7133
vn 0.9849 0.1599 -0.0668
vn -0.7277 -0.6539 -0.2070
vn 0.0048 0.1599 -0.9871
vn -0.6286 0.1130 -0.7695
vn 0.8805 0.2321 0.4133
vn 0.7978 0.0003 0.6029
vn -0.8053 0.3321 -0.4910
vn -0.8165 -0.0957 -0.5694
vn 0.6196 -0.0956 0.7791
vn 0.7051 -0.1027 0.7016
vn -0.7445 -0.1027 -0.6596
vn 0.2523 -0.6538 0.7133
vn -0.7278 -0.6539 -0.2070
s off
f 1/1/1 2/2/1 3/3/1
f 2/4/2 4/5/2 5/6/2
f 6/7/3 1/8/3 7/9/3
f 8/10/4 9/11/4 10/12/4
f 4/13/5 6/7/5 7/9/5
f 11/14/6 9/15/6 12/16/6
f 7/17/7 11/18/7 4/19/7
f 7/20/8 8/21/8 13/22/8
f 10/23/9 11/24/9 13/25/9
f 8/26/10 10/27/10 13/28/10
f 9/11/11 14/29/11 15/30/11
f 12/16/12 9/15/12 15/31/12
f 3/3/13 16/32/13 1/1/13
f 17/33/14 4/5/14 16/34/14
f 16/35/15 18/36/15 1/37/15
f 19/38/16 8/10/16 20/39/16
f 4/40/17 18/36/17 16/35/17
f 11/14/18 19/41/18 20/42/18
f 11/18/19 18/43/19 4/19/19
f 18/44/20 8/21/20 1/45/20
f 20/46/21 21/47/21 11/48/21
f 8/49/22 21/50/22 20/51/22
f 19/38/23 15/30/23 14/29/23
f 12/16/24 15/31/24 19/41/24
f 17/33/25 22/52/25 5/6/25
f 5/6/26 23/53/26 2/4/26
f 3/54/27 24/55/27 17/56/27
f 3/3/28 23/57/28 25/58/28
f 1/1/1 6/59/1 2/2/1
f 2/4/2 6/60/2 4/5/2
f 8/10/29 14/29/29 9/11/29
f 11/14/30 10/61/30 9/15/30
f 7/17/31 13/62/31 11/18/31
f 7/20/32 1/45/32 8/21/32
f 3/3/13 17/63/13 16/32/13
f 17/33/14 5/6/14 4/5/14
f 19/38/33 14/29/33 8/10/33
f 11/14/34 12/16/34 19/41/34
f 11/18/35 21/64/35 18/43/35
f 18/44/36 21/65/36 8/21/36
f 17/33/37 24/66/37 22/52/37
f 5/6/26 22/52/26 23/53/26
f 3/54/38 25/67/38 24/55/38
f 3/3/28 2/2/28 23/57/28
