# Blender v2.93.5 OBJ File: ''
# www.blender.org
o Cube
v 0.500000 1.000000 -0.500000
v 0.500000 0.000000 -0.500000
v 0.600000 0.900000 -0.400000
v 0.600000 0.100000 -0.400000
v -0.500000 1.000000 -0.500000
v -0.500000 0.000000 -0.500000
v -0.400000 0.900000 -0.600000
v -0.400000 0.100000 -0.600000
v -0.600000 0.900000 -0.400000
v -0.600000 0.100000 -0.400000
v 0.400000 0.100000 -0.600000
v 0.400000 0.900000 -0.600000
v 0.500000 1.000000 0.500000
v 0.500000 0.000000 0.500000
v 0.600000 0.900000 0.400000
v 0.600000 0.100000 0.400000
v -0.500000 1.000000 0.500000
v -0.500000 0.000000 0.500000
v -0.400000 0.900000 0.600000
v -0.400000 0.100000 0.600000
v -0.600000 0.900000 0.400000
v -0.600000 0.100000 0.400000
v 0.400000 0.100000 0.600000
v 0.400000 0.900000 0.600000
vt -0.124110 1.121101
vt -0.000083 0.006068
vt -0.124110 -0.115784
vt 1.112775 1.121101
vt 0.993115 0.006068
vt 1.112775 -0.115784
vt 0.993115 0.006068
vt -0.000083 0.997412
vt -0.000083 0.006068
vt 0.993115 0.997412
vt 0.993115 0.006068
vt 0.993115 0.006068
vt 1.112775 1.121101
vt 1.112775 -0.115784
vt -0.000083 0.997412
vt -0.000083 0.006068
vt -0.000083 0.997412
vt -0.124110 1.121101
vt -0.124110 -0.115784
vt -0.000083 0.997412
vt -0.124110 1.121101
vt -0.000083 0.006068
vt -0.000083 0.006068
vt -0.124110 -0.115784
vt 0.993115 0.997412
vt 0.993115 0.006068
vt 1.112775 -0.115784
vt -0.000083 0.997412
vt 1.112775 1.121101
vt 0.993115 0.997412
vt 0.993115 0.997412
vt 0.993115 0.997412
vn -0.7071 0.0000 -0.7071
vn 0.7071 0.0000 -0.7071
vn 0.0000 1.0000 0.0000
vn 0.0000 0.0000 -1.0000
vn 0.0000 -0.7071 -0.7071
vn -1.0000 0.0000 0.0000
vn 0.0000 0.7071 -0.7071
vn -0.7071 0.7071 0.0000
vn -0.7071 -0.7071 0.0000
vn 0.7071 0.7071 0.0000
vn 0.7071 -0.7071 0.0000
vn 1.0000 0.0000 0.0000
vn -0.7071 0.0000 0.7071
vn 0.7071 0.0000 0.7071
vn 0.0000 0.0000 1.0000
vn 0.0000 -0.7071 0.7071
vn 0.0000 0.7071 0.7071
s off
f 5/1/1 8/2/1 6/3/1
f 1/4/2 4/5/2 2/6/2
f 13/7/3 5/8/3 17/9/3
f 8/2/4 12/10/4 11/11/4
f 6/3/5 11/11/5 2/6/5
f 10/12/1 5/13/1 6/14/1
f 21/15/6 10/12/6 22/16/6
f 1/4/7 7/17/7 5/1/7
f 5/13/8 21/15/8 17/18/8
f 18/19/9 10/12/9 6/14/9
f 1/4/2 11/11/2 12/10/2
f 15/20/10 1/4/10 13/21/10
f 16/22/11 2/6/11 4/5/11
f 4/5/12 15/20/12 16/22/12
f 20/23/13 17/18/13 18/19/13
f 16/22/14 13/21/14 14/24/14
f 24/25/15 20/23/15 23/26/15
f 23/26/16 18/19/16 14/27/16
f 17/18/13 22/16/13 18/19/13
f 19/28/17 13/29/17 17/18/17
f 24/25/14 14/27/14 13/29/14
f 5/1/1 7/17/1 8/2/1
f 1/4/2 3/30/2 4/5/2
f 13/7/3 1/31/3 5/8/3
f 8/2/4 7/17/4 12/10/4
f 6/3/5 8/2/5 11/11/5
f 10/12/1 9/32/1 5/13/1
f 21/15/6 9/32/6 10/12/6
f 1/4/7 12/10/7 7/17/7
f 5/13/8 9/32/8 21/15/8
f 18/19/9 22/16/9 10/12/9
f 1/4/2 2/6/2 11/11/2
f 15/20/10 3/30/10 1/4/10
f 16/22/11 14/24/11 2/6/11
f 4/5/12 3/30/12 15/20/12
f 20/23/13 19/28/13 17/18/13
f 16/22/14 15/20/14 13/21/14
f 24/25/15 19/28/15 20/23/15
f 23/26/16 20/23/16 18/19/16
f 17/18/13 21/15/13 22/16/13
f 19/28/17 24/25/17 13/29/17
f 24/25/14 23/26/14 14/27/14
